<svg width="50" height="50" viewBox="0 0 50 50" fill="none" xmlns="http://www.w3.org/2000/svg">
<path d="M47.7837 38.9712L45.2837 36.4712V12.5529C45.2837 12.1042 45.1394 11.7356 44.851 11.4471C44.5625 11.1587 44.1939 11.0144 43.7452 11.0144H35.2548L30.6442 6.01443H19.9231L17.5 8.68751L15.7164 6.90384L18.8414 3.51442H31.726L36.351 8.51442H43.7452C44.8959 8.51442 45.8566 8.89983 46.6274 9.67067C47.3983 10.4415 47.7837 11.4022 47.7837 12.5529V38.9712ZM6.82212 43.5144C5.67148 43.5144 4.71074 43.129 3.93991 42.3582C3.16907 41.5874 2.78366 40.6266 2.78366 39.476V12.5529C2.78366 11.4022 3.16907 10.4415 3.93991 9.67067C4.71074 8.89983 5.67148 8.51442 6.82212 8.51442H10.2981L12.7981 11.0144H6.82212C6.37341 11.0144 6.00482 11.1587 5.71636 11.4471C5.4279 11.7356 5.28367 12.1042 5.28367 12.5529V39.476C5.28367 39.9247 5.4279 40.2933 5.71636 40.5817C6.00482 40.8702 6.37341 41.0144 6.82212 41.0144H42.7981L45.2981 43.5144H6.82212ZM33.0145 31.2308C32.1651 32.4872 31.0713 33.4864 29.7332 34.2284C28.3951 34.9704 26.9119 35.3414 25.2837 35.3414C22.6715 35.3414 20.464 34.4399 18.6611 32.637C16.8582 30.8341 15.9567 28.6266 15.9567 26.0144C15.9567 24.3862 16.3277 22.903 17.0697 21.5649C17.8117 20.2268 18.8109 19.133 20.0673 18.2837L21.8654 20.0817C20.8334 20.6555 20.0072 21.4615 19.387 22.5C18.7668 23.5385 18.4568 24.7099 18.4568 26.0144C18.4568 27.9567 19.109 29.5801 20.4135 30.8846C21.718 32.1891 23.3414 32.8414 25.2837 32.8414C26.5882 32.8414 27.7596 32.5313 28.7981 31.9111C29.8366 31.2909 30.6426 30.4647 31.2164 29.4327L33.0145 31.2308ZM31.8895 19.4087C32.6747 20.1843 33.3005 21.0753 33.7669 22.0817C34.2332 23.0881 34.4984 24.1907 34.5625 25.3894C34.5625 25.4471 34.5625 25.5048 34.5625 25.5625C34.5625 25.6202 34.5577 25.6779 34.5481 25.7356L25.5625 16.75C25.6202 16.7404 25.6779 16.7356 25.7356 16.7356C25.7933 16.7356 25.851 16.7356 25.9087 16.7356C27.1074 16.7997 28.21 17.0649 29.2164 17.5312C30.2228 17.9976 31.1138 18.6234 31.8895 19.4087ZM48.0577 49.8414L0 1.78366L1.78366 0L49.8414 48.0577L48.0577 49.8414Z" fill="#F2CA50"/>
</svg>
