<svg width="256" height="256" viewBox="0 0 256 256" fill="none" xmlns="http://www.w3.org/2000/svg">
<rect x="0.5" y="0.5" width="255" height="255" rx="7.5" stroke="#F2CA50" stroke-opacity="0.4"/>
<mask id="path-3-inside-1_1_583" fill="white">
<path d="M1 9C1 4.58172 4.58172 1 9 1H33V33H1V9Z"/>
</mask>
<path d="M-1 9C-1 3.47715 3.47715 -1 9 -1H33V3H9C5.68629 3 3 5.68629 3 9H-1ZM3 9M33 33H1H33M-1 33V9C-1 3.47715 3.47715 -1 9 -1V3C5.68629 3 3 5.68629 3 9V33H-1ZM3 33M33 1V33V1" fill="#F2CA50" mask="url(#path-3-inside-1_1_583)"/>
<mask id="path-5-inside-2_1_583" fill="white">
<path d="M223 1H247C251.418 1 255 4.58172 255 9V33H223V1Z"/>
</mask>
<path d="M223 -1H247C252.523 -1 257 3.47715 257 9H253C253 5.68629 250.314 3 247 3H223V-1ZM223 3M255 33H223H255M255 33M223 33V1V33M247 -1C252.523 -1 257 3.47715 257 9V33H253V9C253 5.68629 250.314 3 247 3V-1Z" fill="#F2CA50" mask="url(#path-5-inside-2_1_583)"/>
<mask id="path-7-inside-3_1_583" fill="white">
<path d="M1 223H33V255H9C4.58172 255 1 251.418 1 247V223Z"/>
</mask>
<path d="M1 223H33H1M33 257H9C3.47715 257 -1 252.523 -1 247H3C3 250.314 5.68629 253 9 253H33V257ZM9 257C3.47715 257 -1 252.523 -1 247V223H3V247C3 250.314 5.68629 253 9 253V257ZM9 253M33 223V255V223" fill="#F2CA50" mask="url(#path-7-inside-3_1_583)"/>
<mask id="path-9-inside-4_1_583" fill="white">
<path d="M223 223H255V247C255 251.418 251.418 255 247 255H223V223Z"/>
</mask>
<path d="M223 223H255H223M257 247C257 252.523 252.523 257 247 257H223V253H247C250.314 253 253 250.314 253 247H257ZM253 247M223 255V223V255M257 223V247C257 252.523 252.523 257 247 257V253C250.314 253 253 250.314 253 247V223H257Z" fill="#F2CA50" mask="url(#path-9-inside-4_1_583)"/>
</svg>
